HIERARCHY
ROOT Hips
{
  OFFSET -53.8329 26.6361 -73.3701
  CHANNELS 6 Xposition Yposition Zposition Zrotation Xrotation Yrotation
  JOINT Spine
  {
    OFFSET 0 8 0
    CHANNELS 6 Xposition Yposition Zposition Zrotation Xrotation Yrotation
    JOINT Spine1
    {
      OFFSET 0 8 0
      CHANNELS 6 Xposition Yposition Zposition Zrotation Xrotation Yrotation
      JOINT Spine2
      {
        OFFSET 0 8 0
        CHANNELS 6 Xposition Yposition Zposition Zrotation Xrotation Yrotation
        JOINT Spine3
        {
          OFFSET 0 8 0
          CHANNELS 6 Xposition Yposition Zposition Zrotation Xrotation Yrotation
          JOINT Neck
          {
            OFFSET -0.00588139 17 0.00311416
            CHANNELS 6 Xposition Yposition Zposition Zrotation Xrotation Yrotation
            JOINT Head
            {
              OFFSET 0 10.8 0
              CHANNELS 6 Xposition Yposition Zposition Zrotation Xrotation Yrotation
              End Site
              {
                OFFSET 0 20.25 0
              }
            }
          }
          JOINT LeftShoulder
          {
            OFFSET 4.99412 17.0017 0.00346975
            CHANNELS 6 Xposition Yposition Zposition Zrotation Xrotation Yrotation
            JOINT LeftShoulder2
            {
              OFFSET 6.45 0 0
              CHANNELS 6 Xposition Yposition Zposition Zrotation Xrotation Yrotation
              JOINT LeftArm
              {
                OFFSET 6.44999 0.0105085 -0.000919995
                CHANNELS 6 Xposition Yposition Zposition Zrotation Xrotation Yrotation
                JOINT LeftForeArm
                {
                  OFFSET 0 -32.4 -2.00001
                  CHANNELS 6 Xposition Yposition Zposition Zrotation Xrotation Yrotation
                  JOINT LeftHand
                  {
                    OFFSET 0 -25.65 2
                    CHANNELS 6 Xposition Yposition Zposition Zrotation Xrotation Yrotation
                    JOINT LeftHandThumb1
                    {
                      OFFSET -0.499991 -1.5 2.65
                      CHANNELS 6 Xposition Yposition Zposition Zrotation Xrotation Yrotation
                      JOINT LeftHandThumb2
                      {
                        OFFSET -1.44999e-05 -3.8 3.7
                        CHANNELS 6 Xposition Yposition Zposition Zrotation Xrotation Yrotation
                        JOINT LeftHandThumb3
                        {
                          OFFSET 0 -3 2.7
                          CHANNELS 6 Xposition Yposition Zposition Zrotation Xrotation Yrotation
                          End Site
                          {
                            OFFSET 0 -2.3 1.8
                          }
                        }
                      }
                    }
                    JOINT LeftHandIndex
                    {
                      OFFSET 0 -1.9 1.6
                      CHANNELS 6 Xposition Yposition Zposition Zrotation Xrotation Yrotation
                      JOINT LeftHandIndex1
                      {
                        OFFSET -1.43521e-05 -8.3 1.9
                        CHANNELS 6 Xposition Yposition Zposition Zrotation Xrotation Yrotation
                        JOINT LeftHandIndex2
                        {
                          OFFSET 1.24489e-05 -4.5 0
                          CHANNELS 6 Xposition Yposition Zposition Zrotation Xrotation Yrotation
                          JOINT LeftHandIndex3
                          {
                            OFFSET -1.19841e-05 -3.4 0
                            CHANNELS 6 Xposition Yposition Zposition Zrotation Xrotation Yrotation
                            End Site
                            {
                              OFFSET 0 -2.6 0
                            }
                          }
                        }
                      }
                    }
                    JOINT LeftHandMiddle
                    {
                      OFFSET -0.249992 -2.2 0.400002
                      CHANNELS 6 Xposition Yposition Zposition Zrotation Xrotation Yrotation
                      JOINT LeftHandMiddle1
                      {
                        OFFSET 0 -8.30001 1
                        CHANNELS 6 Xposition Yposition Zposition Zrotation Xrotation Yrotation
                        JOINT LeftHandMiddle2
                        {
                          OFFSET 0 -4.64999 0
                          CHANNELS 6 Xposition Yposition Zposition Zrotation Xrotation Yrotation
                          JOINT LeftHandMiddle3
                          {
                            OFFSET -1.31479e-05 -3.3 0
                            CHANNELS 6 Xposition Yposition Zposition Zrotation Xrotation Yrotation
                            End Site
                            {
                              OFFSET 0 -2.7 0
                            }
                          }
                        }
                      }
                    }
                    JOINT LeftHandRing
                    {
                      OFFSET -0.499991 -2.15001 -0.799998
                      CHANNELS 6 Xposition Yposition Zposition Zrotation Xrotation Yrotation
                      JOINT LeftHandRing1
                      {
                        OFFSET -1.52178e-05 -7.75 -0.199999
                        CHANNELS 6 Xposition Yposition Zposition Zrotation Xrotation Yrotation
                        JOINT LeftHandRing2
                        {
                          OFFSET 0 -3.79999 0
                          CHANNELS 6 Xposition Yposition Zposition Zrotation Xrotation Yrotation
                          JOINT LeftHandRing3
                          {
                            OFFSET 0 -3.4 0
                            CHANNELS 6 Xposition Yposition Zposition Zrotation Xrotation Yrotation
                            End Site
                            {
                              OFFSET 0 -2.6 0
                            }
                          }
                        }
                      }
                    }
                    JOINT LeftHandPinky
                    {
                      OFFSET -0.74999 -1.75 -1.85
                      CHANNELS 6 Xposition Yposition Zposition Zrotation Xrotation Yrotation
                      JOINT LeftHandPinky1
                      {
                        OFFSET 0 -7.15001 -0.999997
                        CHANNELS 6 Xposition Yposition Zposition Zrotation Xrotation Yrotation
                        JOINT LeftHandPinky2
                        {
                          OFFSET 0 -3 0
                          CHANNELS 6 Xposition Yposition Zposition Zrotation Xrotation Yrotation
                          JOINT LeftHandPinky3
                          {
                            OFFSET 0 -2.35 0
                            CHANNELS 6 Xposition Yposition Zposition Zrotation Xrotation Yrotation
                            End Site
                            {
                              OFFSET 0 -2.1 0
                            }
                          }
                        }
                      }
                    }
                  }
                }
              }
            }
          }
          JOINT RightShoulder
          {
            OFFSET -5.00588 16.9983 0.00275925
            CHANNELS 6 Xposition Yposition Zposition Zrotation Xrotation Yrotation
            JOINT RightShoulder2
            {
              OFFSET -6.45 0 0
              CHANNELS 6 Xposition Yposition Zposition Zrotation Xrotation Yrotation
              JOINT RightArm
              {
                OFFSET -6.45 -0.00595556 0
                CHANNELS 6 Xposition Yposition Zposition Zrotation Xrotation Yrotation
                JOINT RightForeArm
                {
                  OFFSET 0 -32.4 -2.00001
                  CHANNELS 6 Xposition Yposition Zposition Zrotation Xrotation Yrotation
                  JOINT RightHand
                  {
                    OFFSET 0 -25.65 2
                    CHANNELS 6 Xposition Yposition Zposition Zrotation Xrotation Yrotation
                    JOINT RightHandThumb1
                    {
                      OFFSET 0.499987 -1.50001 2.65
                      CHANNELS 6 Xposition Yposition Zposition Zrotation Xrotation Yrotation
                      JOINT RightHandThumb2
                      {
                        OFFSET 1.35119e-05 -3.8 3.7
                        CHANNELS 6 Xposition Yposition Zposition Zrotation Xrotation Yrotation
                        JOINT RightHandThumb3
                        {
                          OFFSET 0 -3 2.7
                          CHANNELS 6 Xposition Yposition Zposition Zrotation Xrotation Yrotation
                          End Site
                          {
                            OFFSET 0 -2.30001 1.8
                          }
                        }
                      }
                    }
                    JOINT RightHandIndex
                    {
                      OFFSET 0 -1.9 1.6
                      CHANNELS 6 Xposition Yposition Zposition Zrotation Xrotation Yrotation
                      JOINT RightHandIndex1
                      {
                        OFFSET 1.47196e-05 -8.3 1.9
                        CHANNELS 6 Xposition Yposition Zposition Zrotation Xrotation Yrotation
                        JOINT RightHandIndex2
                        {
                          OFFSET -1.57118e-05 -4.5 0
                          CHANNELS 6 Xposition Yposition Zposition Zrotation Xrotation Yrotation
                          JOINT RightHandIndex3
                          {
                            OFFSET 0 -3.4 0
                            CHANNELS 6 Xposition Yposition Zposition Zrotation Xrotation Yrotation
                            End Site
                            {
                              OFFSET 0 -2.6 0
                            }
                          }
                        }
                      }
                    }
                    JOINT RightHandMiddle
                    {
                      OFFSET 0.249989 -2.2 0.399999
                      CHANNELS 6 Xposition Yposition Zposition Zrotation Xrotation Yrotation
                      JOINT RightHandMiddle1
                      {
                        OFFSET 0 -8.3 1
                        CHANNELS 6 Xposition Yposition Zposition Zrotation Xrotation Yrotation
                        JOINT RightHandMiddle2
                        {
                          OFFSET 0 -4.65 0
                          CHANNELS 6 Xposition Yposition Zposition Zrotation Xrotation Yrotation
                          JOINT RightHandMiddle3
                          {
                            OFFSET 1.06399e-05 -3.3 0
                            CHANNELS 6 Xposition Yposition Zposition Zrotation Xrotation Yrotation
                            End Site
                            {
                              OFFSET 0 -2.7 0
                            }
                          }
                        }
                      }
                    }
                    JOINT RightHandRing
                    {
                      OFFSET 0.499992 -2.15001 -0.8
                      CHANNELS 6 Xposition Yposition Zposition Zrotation Xrotation Yrotation
                      JOINT RightHandRing1
                      {
                        OFFSET 1.12868e-05 -7.75 -0.2
                        CHANNELS 6 Xposition Yposition Zposition Zrotation Xrotation Yrotation
                        JOINT RightHandRing2
                        {
                          OFFSET 0 -3.79999 0
                          CHANNELS 6 Xposition Yposition Zposition Zrotation Xrotation Yrotation
                          JOINT RightHandRing3
                          {
                            OFFSET 0 -3.4 0
                            CHANNELS 6 Xposition Yposition Zposition Zrotation Xrotation Yrotation
                            End Site
                            {
                              OFFSET 0 -2.6 0
                            }
                          }
                        }
                      }
                    }
                    JOINT RightHandPinky
                    {
                      OFFSET 0.749988 -1.75 -1.85
                      CHANNELS 6 Xposition Yposition Zposition Zrotation Xrotation Yrotation
                      JOINT RightHandPinky1
                      {
                        OFFSET 1.15763e-05 -7.15 -1
                        CHANNELS 6 Xposition Yposition Zposition Zrotation Xrotation Yrotation
                        JOINT RightHandPinky2
                        {
                          OFFSET 0 -3 0
                          CHANNELS 6 Xposition Yposition Zposition Zrotation Xrotation Yrotation
                          JOINT RightHandPinky3
                          {
                            OFFSET 0 -2.35 0
                            CHANNELS 6 Xposition Yposition Zposition Zrotation Xrotation Yrotation
                            End Site
                            {
                              OFFSET 0 -2.1 0
                            }
                          }
                        }
                      }
                    }
                  }
                }
              }
            }
          }
        }
      }
    }
  }
  JOINT LeftUpLeg
  {
    OFFSET 8 0 0
    CHANNELS 6 Xposition Yposition Zposition Zrotation Xrotation Yrotation
    JOINT LeftLeg
    {
      OFFSET 0 -45 -0.999996
      CHANNELS 6 Xposition Yposition Zposition Zrotation Xrotation Yrotation
      JOINT LeftFoot
      {
        OFFSET 0 -41 -1.99999
        CHANNELS 6 Xposition Yposition Zposition Zrotation Xrotation Yrotation
        JOINT LeftToeBase
        {
          OFFSET 0 -7.5 12.5
          CHANNELS 6 Xposition Yposition Zposition Zrotation Xrotation Yrotation
          JOINT LeftFootToe
          {
            OFFSET 0 0 4
            CHANNELS 6 Xposition Yposition Zposition Zrotation Xrotation Yrotation
            End Site
            {
              OFFSET 0 0 0
            }
          }
        }
      }
    }
  }
  JOINT RightUpLeg
  {
    OFFSET -8 0 0
    CHANNELS 6 Xposition Yposition Zposition Zrotation Xrotation Yrotation
    JOINT RightLeg
    {
      OFFSET 0 -45 -1
      CHANNELS 6 Xposition Yposition Zposition Zrotation Xrotation Yrotation
      JOINT RightFoot
      {
        OFFSET 0 -41 -2.00001
        CHANNELS 6 Xposition Yposition Zposition Zrotation Xrotation Yrotation
        JOINT RightToeBase
        {
          OFFSET 0 -7.5 12.5
          CHANNELS 6 Xposition Yposition Zposition Zrotation Xrotation Yrotation
          JOINT RightFootToe
          {
            OFFSET 0 0 4
            CHANNELS 6 Xposition Yposition Zposition Zrotation Xrotation Yrotation
            End Site
            {
              OFFSET 0 0 0
            }
          }
        }
      }
    }
  }
}
MOTION
Frames:	4
Frame Time:	0.0111111
0 93.5 0 0 0 -0 0 8 0 0 0 -0 0 8 0 0 0 -0 0 8 0 0 0 -0 0 8 0 0 0 -0 0 17 0 0 0 -0 0 10.8 0 0 0 -0 5 17 0 0 0 -0 6.45 0 0 0 0 -0 6.45 0 0 90.0002 0 -0 0 -32.4 -2 0 0 -0 0 -25.65 2 0 0 -0 -0.5 -1.5 2.65 0 0 -0 0 -3.8 3.7 0 0 -0 0 -3 2.7 0 0 -0 -2.84217e-14 -1.9 1.6 0 0 -0 2.84217e-14 -8.3 1.9 0 0 -0 0 -4.5 0 -0 -0.00230696 -0 0 -3.4 -4.44089e-16 0 0 -1.48106e-24 -0.25 -2.2 0.4 0 0 -0 2.84217e-14 -8.3 1 0 0 -0 0 -4.65 0 -2.42657e-20 0 0.0111155 2.84217e-14 -3.3 0 1.18412e-08 -0.000582199 0.00116532 -0.5 -2.15 -0.8 0 0 -0 0 -7.75 -0.2 0 0 -0 2.84217e-14 -3.8 0 0 0.0079163 -0 0 -3.4 -1.11022e-16 -8.18527e-28 -3.10601e-18 1.18485e-23 -0.75 -1.75 -1.85 0 0 -0 0 -7.15 -1 0 0 -0 0 -3 0 3.99611e-08 -0.00147186 0.00155558 2.84217e-14 -2.35 0 -2.34482e-20 -3.88251e-19 3.88251e-19 -5 17 0 0 0 -0 -6.45 0 0 0 0 -0 -6.45 0 0 -90.0002 0 -0 0 -32.4 -2 0 0 -0 0 -25.65 2 0 0 -0 0.5 -1.5 2.65 0 0 -0 0 -3.8 3.7 0 0 -0.00675748 -2.84217e-14 -3 2.7 4.85314e-20 0 -1.55301e-18 2.84217e-14 -1.9 1.6 0 0 -0 -2.84217e-14 -8.3 1.9 0 0 -0 0 -4.5 0 0 0 -0 0 -3.4 0 0 0 -0 0.25 -2.2 0.4 0 0 -0 -2.84217e-14 -8.3 1 0 0 -0 0 -4.65 0 0 0 -0 0 -3.3 0 0 0 -0 0.5 -2.15 -0.8 0 0 -0 0 -7.75 -0.2 0 0 -0 -2.84217e-14 -3.8 0 0 0 -0 0 -3.4 0 0 0 -0 0.75 -1.75 -1.85 0 0 -0 0 -7.15 -1 0 0 -0 0 -3 0 0 0 -0 0 -2.35 0 0 0 -0 8 0 0 0 0 -0 0 -45 -1 0 0 -0 0 -41 -2 0 0 -0 0 -7.5 12.5 0 0 -0 0 0 4 -0 0 0.0104068 -8 0 0 0 0 -0 0 -45 -1 0 0 -0 0 -41 -2 0 0 -0 0 -7.5 12.5 0 0 -0 0 0 4 0 0 -0.00274672 
-53.4358 26.2266 -73.5106 6.9893 7.87115 55.5794 0 8 0 -7.63425 8.40488 -15.6 -7.10543e-15 8 0 -4.48911 11.0118 15.1033 3.55271e-15 8 1.42109e-14 -0.611893 3.00261 5.86813 0 8 0 0.124968 3.00525 2.95986 0 17 1.42109e-14 -0.893302 -3.62015 2.90223 7.10543e-15 10.8 0 -1.80583 -8.51926 6.72325 5 17 1.42109e-14 -7.61224 -4.28017 15.161 6.45 7.10543e-15 0 3.60226 7.82551 -4.06381 6.45 0 1.42109e-14 26.0924 -64.7401 -22.1516 -7.10543e-15 -32.4 -2 -57.7929 -58.5673 -30.2757 -1.77636e-15 -25.65 2 21.4214 47.5026 -48.6737 -0.5 -1.5 2.65 -3.63443 -10.4693 3.67302 0 -3.8 3.7 0.0972656 6.38752 -0.0484732 -1.77636e-15 -3 2.7 -4.77083e-15 10.2653 -0 -1.77636e-15 -1.9 1.6 -1.59028e-15 0 1.59028e-15 1.77636e-15 -8.3 1.9 -21.1802 13.5537 2.75265 0 -4.5 7.10543e-15 -20.1819 -0.00230696 -0 0 -3.4 -7.10543e-15 -16.006 0 -3.18055e-15 -0.25 -2.2 0.4 -1.59028e-15 0 1.59028e-15 3.55271e-15 -8.3 1 -28.9777 11.3252 3.77885 0 -4.65 0 -24.8927 0.0183732 0.0111155 0 -3.3 0 -18.9865 -0.000582199 0.00116532 -0.5 -2.15 -0.8 -1.59028e-15 0 1.59028e-15 1.77636e-15 -7.75 -0.2 -38.6704 9.75666 5.31873 0 -3.8 0 -30.0282 0.0079163 -0 0 -3.4 0 -22.1105 1.59028e-15 -4.77083e-15 -0.75 -1.75 -1.85 -1.59028e-15 0 1.59028e-15 -1.77636e-15 -7.15 -1 -49.6207 7.86857 6.67647 0 -3 7.10543e-15 -17.0108 -0.00147186 0.00155558 0 -2.35 0 -13.8926 0 -1.59028e-15 -5 17 1.42109e-14 9.738 -7.37326 -8.63783 -6.45 -1.42109e-14 0 2.35686 8.7437 0.153117 -6.45 -7.10543e-15 0 -24.3596 -33.2844 34.4803 7.10543e-15 -32.4 -2 38.283 -60.6024 15.2546 0 -25.65 2 -17.4198 5.25662 16.2894 0.5 -1.5 2.65 2.34187 -22.6671 6.0949 0 -3.8 3.7 0.0757975 30.1132 -0.00781179 0 -3 2.7 0.0872832 26.2052 -0.0402178 -7.10543e-15 -1.9 1.6 -3.97569e-16 2.78299e-15 -1.59028e-15 0 -8.3 1.9 9.13744 17.8189 -1.62415 0 -4.5 0 34.595 -0.138452 0.154074 -7.10543e-15 -3.4 0 24.8412 -0.0372092 0.119314 0.25 -2.2 0.4 -3.97569e-16 2.78299e-15 -1.59028e-15 -7.10543e-15 -8.3 1 28.7687 20.2582 -6.09012 0 -4.65 0 34.5798 -0.125751 0.0856261 0 -3.3 1.77636e-15 24.8336 -0.0475843 0.0787675 0.5 -2.15 -0.8 -3.97569e-16 2.78299e-15 -1.59028e-15 -7.10543e-15 -7.75 -0.2 42.1736 14.9327 -7.58761 -7.10543e-15 -3.8 1.77636e-15 24.8922 -0.0723963 0.130448 0 -3.4 -1.77636e-15 18.909 -0.0170501 0.0923144 0.75 -1.75 -1.85 -3.97569e-16 2.78299e-15 -1.59028e-15 -7.10543e-15 -7.15 -1 41.5336 10.8643 -6.22165 0 -3 -1.77636e-15 47.0181 0.0316184 0.165876 0 -2.35 1.77636e-15 32.5932 0.0743976 0.0805993 8 0 0 109.595 -52.7631 115.042 0 -45 -1 176.273 38.9803 -178.082 0 -41 -2 -1.37247 -32.2138 -36.0796 0 -7.5 12.5 -4.2465e-20 -1.21329e-19 9.54166e-15 0 0 4 -2.37189 3.82125 0.01043 -8 0 0 -87.3995 -74.7401 -76.0307 3.55271e-15 -45 -1 177.785 15.4785 178.431 7.10543e-15 -41 -2 2.09085 -20.1938 2.59539 0 -7.5 12.5 -1.59085e-15 -56.3131 -5.7343e-15 -7.10543e-15 0 4 0.934428 56.3118 -0.00495196 
-53.4375 26.221 -73.5049 6.91709 7.84876 55.6161 0 8 0 -7.59001 8.45892 -15.6146 0 8 -1.42109e-14 -4.53496 10.9654 15.0731 3.55271e-15 8 0 -0.617335 3.00161 5.87522 7.10543e-15 8 0 0.117818 3.00775 2.97043 -7.10543e-15 17 1.42109e-14 -0.84669 -3.49934 2.94206 -1.42109e-14 10.8 0 -1.7018 -8.234 6.82184 5 17 0 -7.61669 -4.30788 15.1184 6.45 0 0 3.53017 7.84766 -4.09571 6.45 0 0 26.6248 -64.8003 -21.9457 0 -32.4 -2 -59.1637 -58.4607 -31.8533 0 -25.65 2 20.6729 47.7426 -47.7975 -0.5 -1.5 2.65 -3.5611 -10.6136 3.87385 0 -3.8 3.7 0.0976765 6.42154 -0.0490338 1.77636e-15 -3 2.7 3.47145e-15 10.3661 -1.61666e-15 -1.77636e-15 -1.9 1.6 -8.82781e-32 3.18055e-15 1.59028e-15 -3.55271e-15 -8.3 1.9 -21.9808 13.6892 2.89295 0 -4.5 0 -20.2876 -0.00230696 -0 0 -3.4 7.10543e-15 -16.0747 0 -1.59028e-15 -0.25 -2.2 0.4 -8.82781e-32 3.18055e-15 1.59028e-15 0 -8.3 1 -29.7768 11.3508 3.90032 3.55271e-15 -4.65 0 -25.2648 0.00316357 0.0111155 0 -3.3 -7.10543e-15 -19.2206 -0.000582199 0.00116532 -0.5 -2.15 -0.8 -8.82781e-32 3.18055e-15 1.59028e-15 -1.77636e-15 -7.75 -0.2 -39.2577 9.80813 5.43944 0 -3.8 0 -30.3823 0.0079163 -1.59028e-15 0 -3.4 0 -22.323 0 -3.18055e-15 -0.75 -1.75 -1.85 -8.82781e-32 3.18055e-15 1.59028e-15 0 -7.15 -1 -50.5503 7.85127 6.85913 0 -3 0 -17.0601 -0.00147186 0.00155558 0 -2.35 0 -13.9265 -4.77083e-15 -1.59028e-15 -5 17 1.42109e-14 9.76586 -7.45224 -8.60328 -6.45 -7.10543e-15 0 2.31486 8.7141 0.149143 -6.45 -1.06581e-14 1.42109e-14 -24.8329 -33.1477 33.9007 0 -32.4 -2 39.2936 -60.7892 15.9855 -7.10543e-15 -25.65 2 -18.2936 4.16928 14.6014 0.5 -1.5 2.65 2.73023 -22.5564 5.92968 -7.10543e-15 -3.8 3.7 0.0852276 29.6169 -0.00777303 0 -3 2.7 0.0836278 26.6997 -0.0434324 -7.10543e-15 -1.9 1.6 3.97569e-16 -1.56543e-15 -0 0 -8.3 1.9 9.84348 18.5122 -1.82058 0 -4.5 -3.55271e-15 36.8972 -0.128257 0.13617 0 -3.4 1.77636e-15 26.2345 -0.0333634 0.108144 0.25 -2.2 0.4 3.97569e-16 -1.56543e-15 -0 0 -8.3 1 32.4689 21.2533 -7.2481 0 -4.65 -1.77636e-15 37.0594 -0.100018 0.0901329 0 -3.3 -1.77636e-15 26.3389 -0.0297874 0.0754593 0.5 -2.15 -0.8 3.97569e-16 -1.56543e-15 -0 7.10543e-15 -7.75 -0.2 46.3845 15.2509 -8.68223 0 -3.8 0 26.9626 -0.0524797 0.129066 0 -3.4 -1.77636e-15 20.1995 -0.00355496 0.0858472 0.75 -1.75 -1.85 3.97569e-16 -1.56543e-15 -0 0 -7.15 -1 44.8107 10.899 -6.91449 0 -3 -1.77636e-15 48.8182 0.0270638 0.123633 0 -2.35 0 33.7641 0.059921 0.0587378 8 0 0 109.797 -52.707 115.17 0 -45 -1 176.302 38.9486 -178.091 0 -41 -2 -1.37951 -31.5982 -36.1481 7.10543e-15 -7.5 12.5 -5.82377e-17 -0.46016 -0 0 5.55112e-17 4 -2.11948 3.79651 0.0104297 -8 0 0 -87.3522 -74.7996 -75.9652 -3.55271e-15 -45 -1 177.772 15.475 178.35 0 -41 -2 2.30059 -20.1309 2.88469 7.10543e-15 -7.5 12.5 -1.59303e-14 -56.386 -1.14905e-14 0 -1.38778e-17 4 0.828505 56.3847 -0.00496144 
-53.4396 26.2155 -73.4998 6.8466 7.82774 55.6557 7.10543e-15 8 0 -7.54782 8.51284 -15.6309 0 8 0 -4.57998 10.9218 15.0388 0 8 0 -0.622089 3.00095 5.88399 7.10543e-15 8 0 0.112566 3.00809 2.98294 -7.10543e-15 17 0 -0.791835 -3.37048 2.97549 7.10543e-15 10.8 0 -1.58002 -7.92909 6.90589 5 17 0 -7.62767 -4.32848 15.0833 6.45 0 0 3.46187 7.86673 -4.12751 6.45 -1.42109e-14 0 27.1631 -64.886 -21.7549 7.10543e-15 -32.4 -2 -60.4474 -58.3423 -33.3203 1.77636e-15 -25.65 2 19.9748 47.9301 -46.9058 -0.5 -1.5 2.65 -3.56449 -10.7805 3.98634 -1.77636e-15 -3.8 3.7 0.0977413 6.49674 -0.0490411 0 -3 2.7 5.03466e-16 10.3931 1.6168e-15 3.55271e-15 -1.9 1.6 7.95139e-16 0 -3.18055e-15 3.55271e-15 -8.3 1.9 -22.7267 13.7781 3.01911 1.77636e-15 -4.5 0 -20.3328 -0.00230696 -0 0 -3.4 -7.10543e-15 -16.1041 -1.59028e-15 7.95139e-15 -0.25 -2.2 0.4 7.95139e-16 0 -3.18055e-15 0 -8.3 1 -30.5054 11.3431 4.00363 0 -4.65 0 -25.2711 -0.000905908 0.0111155 -7.10543e-15 -3.3 7.10543e-15 -19.2244 -0.000582199 0.00116532 -0.5 -2.15 -0.8 7.95139e-16 0 -3.18055e-15 0 -7.75 -0.2 -39.7599 9.84228 5.53983 3.55271e-15 -3.8 0 -30.6576 0.0079163 3.18055e-15 0 -3.4 0 -22.488 -4.77083e-15 4.77083e-15 -0.75 -1.75 -1.85 7.95139e-16 0 -3.18055e-15 1.77636e-15 -7.15 -1 -51.3939 7.81728 7.01979 0 -3 7.10543e-15 -17.0906 -0.00147186 0.00155558 0 -2.35 0 -13.9475 3.18055e-15 -3.18055e-15 -5 17 1.42109e-14 9.78665 -7.5264 -8.56146 -6.45 0 0 2.28053 8.68329 0.147417 -6.45 3.55271e-15 0 -25.3818 -33.018 33.2643 0 -32.4 -2 40.3602 -60.9169 16.8983 0 -25.65 2 -19.2405 3.12624 12.8056 0.5 -1.5 2.65 3.11531 -22.4879 5.75148 0 -3.8 3.7 0.0974193 29.1343 -0.0122078 0 -3 2.7 0.0763533 27.2047 -0.0429587 0 -1.9 1.6 9.93923e-16 -2.98177e-15 -7.95139e-16 0 -8.3 1.9 10.5416 19.309 -2.03663 0 -4.5 -8.88178e-16 38.899 -0.123743 0.126005 -7.10543e-15 -3.4 -8.88178e-16 27.4518 -0.0317718 0.102928 0.25 -2.2 0.4 9.93923e-16 -2.98177e-15 -7.95139e-16 -7.10543e-15 -8.3 1 36.2626 22.2021 -8.53126 7.10543e-15 -4.65 0 39.2848 -0.0700932 0.112617 7.10543e-15 -3.3 0 27.7025 -0.00538198 0.0804681 0.5 -2.15 -0.8 9.93923e-16 -2.98177e-15 -7.95139e-16 7.10543e-15 -7.75 -0.2 50.7241 15.4958 -9.88208 0 -3.8 -1.77636e-15 28.9513 -0.0219355 0.119418 0 -3.4 1.77636e-15 21.4291 0.0136425 0.0724311 0.75 -1.75 -1.85 9.93923e-16 -2.98177e-15 -7.95139e-16 7.10543e-15 -7.15 -1 48.2557 11.0013 -7.73646 0 -3 0 50.5183 0.0202457 0.0769552 -3.55271e-15 -2.35 0 34.8888 0.0416907 0.0355923 8 -3.55271e-15 0 109.941 -52.6695 115.253 -1.42109e-14 -45 -1 176.332 38.9408 -178.1 0 -41 -2 -1.36795 -31.5768 -36.196 0 -7.5 12.5 -5.99264e-17 -0.460379 6.36131e-15 0 5.55112e-17 4 -2.22521 3.7693 0.0104496 -8 0 -1.42109e-14 -87.3135 -74.8652 -75.9038 -7.10543e-15 -45 -1 177.758 15.4718 178.264 7.10543e-15 -41 -2 2.44153 -20.0686 3.05013 0 -7.5 12.5 4.79738e-15 -56.4565 5.75593e-15 0 0 4 0.83775 56.4546 -0.00497056 
